# xmcd
#
# Track frame offsets:
#	150
#	17030
#	36175
#	54275
#	76495
#	95745
#	120660
#	139200
#
# Disc length: 2049 seconds
#
# Revision: 1
# Processed by: cddbd v1.5.1PL0 Copyright (c) Steve Scherf et al.
# Submitted via: audiograbber 1.83.01
#
DISCID=6507ff08
DTITLE=Thad Cockrell - and the Starlite Country Band
DYEAR=2000
DGENRE=Country
TTITLE0=Pretending
TTITLE1=Hard Time Taking this Heart Break'n
TTITLE2=Why?
TTITLE3=How Far Can I Drive Tonight?
TTITLE4=Vacancy
TTITLE5=Stack of Dreams
TTITLE6=Burdens Rest Easy
TTITLE7=He Set Me Free
EXTD=
EXTT0=
EXTT1=
EXTT2=
EXTT3=
EXTT4=
EXTT5=
EXTT6=
EXTT7=
PLAYORDER=
